REM DIRINDEX 1\2,1\3
REM DIRNAME folder01,folder02,folder03
TITLE ""
FILE "2121-2140.mp3" MP3
  TRACK 01 AUDIO
    TITLE "0:"
    INDEX 01 00:00:00
  TRACK 02 AUDIO
    TITLE "2:cjc039_3241"
    INDEX 01 00:00:23
  TRACK 03 AUDIO
    TITLE "0:"
    INDEX 01 00:03:23
  TRACK 04 AUDIO
    TITLE "3:cjc039_3242"
    INDEX 01 00:04:01
  TRACK 05 AUDIO
    TITLE "0:"
    INDEX 01 00:07:64
  TRACK 06 AUDIO
    TITLE "2:cjc039_3243"
    INDEX 01 00:09:42
  TRACK 07 AUDIO
    TITLE "0:"
    INDEX 01 00:10:68
  TRACK 08 AUDIO
    TITLE "3:cjc039_3244"
    INDEX 01 00:11:35
  TRACK 09 AUDIO
    TITLE "0:"
    INDEX 01 00:14:74
  TRACK 10 AUDIO
    TITLE "2:cjc039_3245"
    INDEX 01 00:16:46
  TRACK 11 AUDIO
    TITLE "0:"
    INDEX 01 00:17:43
  TRACK 12 AUDIO
    TITLE "3:cjc039_3246"
    INDEX 01 00:18:23
  TRACK 13 AUDIO
    TITLE "0:"
    INDEX 01 00:21:17
  TRACK 14 AUDIO
    TITLE "2:cjc039_3247"
    INDEX 01 00:22:66
  TRACK 15 AUDIO
    TITLE "0:"
    INDEX 01 00:24:29
  TRACK 16 AUDIO
    TITLE "3:cjc039_3248"
    INDEX 01 00:25:03
  TRACK 17 AUDIO
    TITLE "0:"
    INDEX 01 00:29:68
  TRACK 18 AUDIO
    TITLE "2:cjc039_3249"
    INDEX 01 00:31:41
  TRACK 19 AUDIO
    TITLE "0:"
    INDEX 01 00:32:52
  TRACK 20 AUDIO
    TITLE "3:cjc039_3250"
    INDEX 01 00:33:26
  TRACK 21 AUDIO
    TITLE "0:"
    INDEX 01 00:36:70
  TRACK 22 AUDIO
    TITLE "2:cjc039_3251"
    INDEX 01 00:38:41
  TRACK 23 AUDIO
    TITLE "0:"
    INDEX 01 00:39:70
  TRACK 24 AUDIO
    TITLE "3:cjc039_3252"
    INDEX 01 00:40:50
  TRACK 25 AUDIO
    TITLE "0:"
    INDEX 01 00:44:40
  TRACK 26 AUDIO
    TITLE "2:cjc039_3253"
    INDEX 01 00:46:17
  TRACK 27 AUDIO
    TITLE "0:"
    INDEX 01 00:47:17
  TRACK 28 AUDIO
    TITLE "3:cjc039_3254"
    INDEX 01 00:47:74
  TRACK 29 AUDIO
    TITLE "0:"
    INDEX 01 00:51:62
  TRACK 30 AUDIO
    TITLE "2:cjc039_3255"
    INDEX 01 00:53:33
  TRACK 31 AUDIO
    TITLE "0:"
    INDEX 01 00:54:62
  TRACK 32 AUDIO
    TITLE "3:cjc039_3256"
    INDEX 01 00:55:38
  TRACK 33 AUDIO
    TITLE "0:"
    INDEX 01 01:00:29
  TRACK 34 AUDIO
    TITLE "2:cjc039_3257"
    INDEX 01 01:02:03
  TRACK 35 AUDIO
    TITLE "0:"
    INDEX 01 01:03:27
  TRACK 36 AUDIO
    TITLE "3:cjc039_3258"
    INDEX 01 01:04:07
  TRACK 37 AUDIO
    TITLE "0:"
    INDEX 01 01:07:47
  TRACK 38 AUDIO
    TITLE "2:cjc039_3259"
    INDEX 01 01:09:28
  TRACK 39 AUDIO
    TITLE "0:"
    INDEX 01 01:10:65
  TRACK 40 AUDIO
    TITLE "3:cjc039_3260"
    INDEX 01 01:11:45
  TRACK 41 AUDIO
    TITLE "0:"
    INDEX 01 01:15:29
  TRACK 42 AUDIO
    TITLE "2:cjc039_3261"
    INDEX 01 01:17:02
  TRACK 43 AUDIO
    TITLE "0:"
    INDEX 01 01:18:15
  TRACK 44 AUDIO
    TITLE "3:cjc039_3262"
    INDEX 01 01:18:70
  TRACK 45 AUDIO
    TITLE "0:"
    INDEX 01 01:22:23
  TRACK 46 AUDIO
    TITLE "2:cjc039_3263"
    INDEX 01 01:23:73
  TRACK 47 AUDIO
    TITLE "0:"
    INDEX 01 01:25:23
  TRACK 48 AUDIO
    TITLE "3:cjc039_3264"
    INDEX 01 01:26:05
  TRACK 49 AUDIO
    TITLE "0:"
    INDEX 01 01:30:26
  TRACK 50 AUDIO
    TITLE "2:cjc039_3265"
    INDEX 01 01:31:71
  TRACK 51 AUDIO
    TITLE "0:"
    INDEX 01 01:33:07
  TRACK 52 AUDIO
    TITLE "3:cjc039_3266"
    INDEX 01 01:33:58
  TRACK 53 AUDIO
    TITLE "0:"
    INDEX 01 01:37:01
  TRACK 54 AUDIO
    TITLE "2:cjc039_3267"
    INDEX 01 01:38:53
  TRACK 55 AUDIO
    TITLE "0:"
    INDEX 01 01:39:59
  TRACK 56 AUDIO
    TITLE "3:cjc039_3268"
    INDEX 01 01:40:35
  TRACK 57 AUDIO
    TITLE "0:"
    INDEX 01 01:44:72
  TRACK 58 AUDIO
    TITLE "2:cjc039_3269"
    INDEX 01 01:46:43
  TRACK 59 AUDIO
    TITLE "0:"
    INDEX 01 01:47:68
  TRACK 60 AUDIO
    TITLE "3:cjc039_3270"
    INDEX 01 01:48:44
  TRACK 61 AUDIO
    TITLE "0:"
    INDEX 01 01:52:57
  TRACK 62 AUDIO
    TITLE "2:cjc039_3271"
    INDEX 01 01:54:37
  TRACK 63 AUDIO
    TITLE "0:"
    INDEX 01 01:55:63
  TRACK 64 AUDIO
    TITLE "3:cjc039_3272"
    INDEX 01 01:56:34
  TRACK 65 AUDIO
    TITLE "0:"
    INDEX 01 01:59:73
  TRACK 66 AUDIO
    TITLE "2:cjc039_3273"
    INDEX 01 02:01:50
  TRACK 67 AUDIO
    TITLE "0:"
    INDEX 01 02:02:66
  TRACK 68 AUDIO
    TITLE "3:cjc039_3274"
    INDEX 01 02:03:39
  TRACK 69 AUDIO
    TITLE "0:"
    INDEX 01 02:07:59
  TRACK 70 AUDIO
    TITLE "2:cjc039_3275"
    INDEX 01 02:09:32
  TRACK 71 AUDIO
    TITLE "0:"
    INDEX 01 02:10:65
  TRACK 72 AUDIO
    TITLE "3:cjc039_3276"
    INDEX 01 02:11:39
  TRACK 73 AUDIO
    TITLE "0:"
    INDEX 01 02:16:26
  TRACK 74 AUDIO
    TITLE "2:cjc039_3277"
    INDEX 01 02:18:02
  TRACK 75 AUDIO
    TITLE "0:"
    INDEX 01 02:18:74
  TRACK 76 AUDIO
    TITLE "3:cjc039_3278"
    INDEX 01 02:19:54
  TRACK 77 AUDIO
    TITLE "0:"
    INDEX 01 02:22:53
  TRACK 78 AUDIO
    TITLE "2:cjc039_3279"
    INDEX 01 02:24:30
  TRACK 79 AUDIO
    TITLE "0:"
    INDEX 01 02:25:65
  TRACK 80 AUDIO
    TITLE "3:cjc039_3280"
    INDEX 01 02:26:44
  TRACK 81 AUDIO
    TITLE "0:"
    INDEX 01 02:31:14
